<svg id="Layer_1" data-name="Layer 1" xmlns="http://www.w3.org/2000/svg" viewBox="0 0 359 359"><defs><style>.cls-1{fill:#ed1c24;stroke:#ed1c24;stroke-miterlimit:10;}.cls-2{fill:#fff;}</style></defs><rect class="cls-1" x="1.21" y="1.28" width="357" height="357" rx="94.99"/><path class="cls-2" d="M101,269.46V74.8c0-9.55-8.59-17.3-19.18-17.3h0c-10.6,0-19.19,7.75-19.19,17.3v212c0,9.55,8.59,17.3,19.19,17.3H211.35c10.6,0,19.19-7.75,19.19-17.3h0c0-9.56-8.59-17.3-19.19-17.3Z"/><path class="cls-2" d="M276.59,304.06h0c10.6,0,19.19-7.9,19.19-17.65V145.19c0-9.75-8.59-17.66-19.19-17.66h0c-10.6,0-19.19,7.91-19.19,17.66V286.41C257.4,296.16,266,304.06,276.59,304.06Z"/><rect class="cls-2" x="257.4" y="71.89" width="38.38" height="38.38" rx="19.19"/></svg>