<svg id="Layer_1" data-name="Layer 1" xmlns="http://www.w3.org/2000/svg" viewBox="0 0 400 400"><defs><style>.cls-1{fill:#d7002c;}.cls-2{fill:#fff;}</style></defs><rect class="cls-1" x="0.5" width="400" height="400" rx="91.03"/><path class="cls-2" d="M191.5,301.5A19.53,19.53,0,0,1,172,282V218a19.5,19.5,0,0,1,39,0v64A19.53,19.53,0,0,1,191.5,301.5Z"/><path class="cls-2" d="M191.5,199a19,19,0,0,1,19,19v64a19,19,0,0,1-38,0V218a19,19,0,0,1,19-19m0-1h0a20,20,0,0,0-20,20v64a20,20,0,0,0,20,20h0a20,20,0,0,0,20-20V218a20,20,0,0,0-20-20Z"/><circle class="cls-2" cx="191.5" cy="160" r="19.5"/><path class="cls-2" d="M191.5,141a19,19,0,1,1-19,19,19,19,0,0,1,19-19m0-1h0a20,20,0,0,0,0,40h0a20,20,0,0,0,0-40Z"/><path class="cls-2" d="M357.7,170a6.33,6.33,0,0,1-6.3-6.35V142.2l-.72.35a20.32,20.32,0,0,1-8.85,2c-12.23,0-22.17-10.9-22.17-24.29S329.6,96,341.83,96A20.66,20.66,0,0,1,352,98.7l.39.22.26-.36A6.29,6.29,0,0,1,357.7,96a6.23,6.23,0,0,1,4.45,1.86,6.35,6.35,0,0,1,1.85,4.49v61.3A6.34,6.34,0,0,1,357.7,170Zm-15.87-60.13c-5.28,0-9.57,4.67-9.57,10.41s4.29,10.42,9.57,10.42,9.57-4.68,9.57-10.42S347.11,109.87,341.83,109.87Z"/><path class="cls-2" d="M357.7,96.5a5.77,5.77,0,0,1,4.1,1.71,5.88,5.88,0,0,1,1.7,4.14v61.3a5.8,5.8,0,1,1-11.6,0V141.41l-1.43.69a20,20,0,0,1-8.64,2c-11.95,0-21.67-10.67-21.67-23.79s9.72-23.78,21.67-23.78a19.92,19.92,0,0,1,9.92,2.64l.78.43.52-.71a5.77,5.77,0,0,1,4.65-2.36m-15.87,34.7c5.55,0,10.07-4.9,10.07-10.92s-4.52-10.91-10.07-10.91-10.07,4.9-10.07,10.91,4.52,10.92,10.07,10.92M357.7,95.5a6.77,6.77,0,0,0-5.46,2.77,21,21,0,0,0-10.41-2.77c-12.52,0-22.67,11.09-22.67,24.78s10.15,24.79,22.67,24.79A20.91,20.91,0,0,0,350.9,143v20.65a6.8,6.8,0,1,0,13.6,0v-61.3a6.85,6.85,0,0,0-2-4.84,6.77,6.77,0,0,0-4.81-2Zm-15.87,34.7c-5,0-9.07-4.45-9.07-9.92s4.06-9.91,9.07-9.91,9.07,4.44,9.07,9.91-4.06,9.92-9.07,9.92Z"/><path class="cls-2" d="M257.32,142a6.33,6.33,0,0,1-6.32-6.35V102.56a6.46,6.46,0,0,1,5.41-6.49,5.58,5.58,0,0,1,.91-.07,6.2,6.2,0,0,1,4.43,1.86,6.54,6.54,0,0,1,1.5,2.37v.42l.52,0h.13l.11-.06c.06,0,6.15-3.36,9.26-4a22.9,22.9,0,0,1,3.18-.5c.64,0,1.19-.08,1.7-.08,5.81,0,8.59,2.79,9.89,5.13l0,.06.2.2h.44l.15-.15c.43-.32.93-.66,1.43-1a25.59,25.59,0,0,1,8.57-3.68,23,23,0,0,1,3.5-.52c.51,0,1-.06,1.48-.06,8.54,0,11.58,5.77,11.58,11.17v28.44a6.34,6.34,0,0,1-6.3,6.35,6.23,6.23,0,0,1-4.45-1.86,6.35,6.35,0,0,1-1.85-4.49V116.9a6.63,6.63,0,0,0-6.73-6.5,6.53,6.53,0,0,0-6.55,5.82c0,.26,0,.47,0,.68v18.71a6.34,6.34,0,0,1-6.3,6.35,6.27,6.27,0,0,1-4.46-1.86,6.38,6.38,0,0,1-1.84-4.49V117a6.39,6.39,0,0,0-6.41-6.5,6.8,6.8,0,0,0-6.9,6.5v18.36a6.48,6.48,0,0,1-6.2,6.6Z"/><path class="cls-2" d="M303.84,96.5c8.17,0,11.08,5.51,11.08,10.67v28.44a5.83,5.83,0,0,1-5.8,5.85,5.76,5.76,0,0,1-4.1-1.71,5.84,5.84,0,0,1-1.7-4.14V116.9a7.12,7.12,0,0,0-7.23-7,7,7,0,0,0-7,6.32c0,.22,0,.45,0,.68v18.71a5.83,5.83,0,0,1-5.8,5.85,5.76,5.76,0,0,1-4.1-1.71,5.84,5.84,0,0,1-1.7-4.14V117a6.88,6.88,0,0,0-6.91-7,7.31,7.31,0,0,0-7.4,7v18.36a6,6,0,0,1-5.7,6.1h-.08a5.84,5.84,0,0,1-5.82-5.85V102.56a5.82,5.82,0,0,1,5.82-6.06,5.75,5.75,0,0,1,4.08,1.71,6,6,0,0,1,1.35,2.12l0,.84H264l.22-.12c1.55-.86,6.53-3.42,9.13-4a21.83,21.83,0,0,1,3.11-.48c.62,0,1.16-.08,1.66-.08,4.41,0,7.68,1.69,9.46,4.88l.07.12.1.1.31.3h.83l.25-.25c.47-.35,1-.69,1.39-1A25.24,25.24,0,0,1,299,97.07a23.31,23.31,0,0,1,3.43-.51q.74-.06,1.44-.06m0-1c-.49,0-1,0-1.52.06a24.5,24.5,0,0,0-3.57.53A26.31,26.31,0,0,0,290,99.84c-.51.34-1,.69-1.5,1.06h0c-1.76-3.16-5.11-5.39-10.33-5.39-.56,0-1.14,0-1.74.08a22.66,22.66,0,0,0-3.25.51c-3.12.68-9,3.87-9.39,4.08,0,0,0,0,0,0a7,7,0,0,0-1.64-2.64,6.73,6.73,0,0,0-4.79-2,6.55,6.55,0,0,0-1,.07,7,7,0,0,0-5.84,7v33.05a6.83,6.83,0,0,0,6.82,6.85h.09a7,7,0,0,0,6.69-7.1V117a6.29,6.29,0,0,1,6.4-6,5.87,5.87,0,0,1,5.91,6v18.61a6.85,6.85,0,0,0,2,4.84,6.75,6.75,0,0,0,4.81,2,6.82,6.82,0,0,0,6.8-6.85V116.9a5.49,5.49,0,0,1,0-.58v0a6,6,0,0,1,6-5.37,6.13,6.13,0,0,1,6.23,6v18.71a6.85,6.85,0,0,0,2,4.84,6.75,6.75,0,0,0,4.81,2,6.82,6.82,0,0,0,6.8-6.85V107.17c0-6.07-3.64-11.67-12.08-11.67Z"/><path class="cls-2" d="M57.5,301.5a19.5,19.5,0,0,1,0-39h75a19.5,19.5,0,0,1,0,39Z"/><path class="cls-2" d="M132.5,263a19,19,0,0,1,0,38h-75a19,19,0,0,1,0-38h75m0-1h-75a20,20,0,0,0,0,40h75a20,20,0,0,0,0-40Z"/><path class="cls-2" d="M57.5,301.5A19.53,19.53,0,0,1,38,282V160a19.5,19.5,0,0,1,39,0V282A19.53,19.53,0,0,1,57.5,301.5Z"/><path class="cls-2" d="M57.5,141a19,19,0,0,1,19,19V282a19,19,0,0,1-38,0V160a19,19,0,0,1,19-19m0-1h0a20,20,0,0,0-20,20V282a20,20,0,0,0,20,20h0a20,20,0,0,0,20-20V160a20,20,0,0,0-20-20Z"/></svg>