<svg id="Layer_1" data-name="Layer 1" xmlns="http://www.w3.org/2000/svg" viewBox="0 0 650.36 233.12"><defs><style>.cls-1{fill:#c30000;}</style></defs><path d="M61.85,279V74H89.1V254.27h90V279Z" transform="translate(-61.85 -70.69)"/><path d="M206.07,107V74h25.87v33Zm0,172V130.69h25.87V279Z" transform="translate(-61.85 -70.69)"/><path class="cls-1" d="M274.32,279V74h25.05l76.79,109.26H363.5L439.73,74H464.5V279H437.26V108.12l9.63,3L370.65,218.49h-2.2L293,111.15l8.53-3V279Z" transform="translate(-61.85 -70.69)"/><path class="cls-1" d="M607.9,282.34A105.33,105.33,0,0,1,567,274.5a100,100,0,0,1-33-22.16,104.73,104.73,0,0,1-22.3-33.71,108.43,108.43,0,0,1-8.12-42.25,108.43,108.43,0,0,1,8.12-42.25A103.3,103.3,0,0,1,534,100.55a101.28,101.28,0,0,1,33-22,110.34,110.34,0,0,1,81.75,0,100.2,100.2,0,0,1,33,22.15,105.58,105.58,0,0,1,22.3,33.58,107.41,107.41,0,0,1,8.12,42.11,108.43,108.43,0,0,1-8.12,42.25,105.06,105.06,0,0,1-22.3,33.71,100.08,100.08,0,0,1-33,22.16A105.35,105.35,0,0,1,607.9,282.34Zm0-25a75.49,75.49,0,0,0,30.82-6.2,72.83,72.83,0,0,0,24.36-17.33,81.56,81.56,0,0,0,16.1-25.88A85.5,85.5,0,0,0,685,176.38,84.51,84.51,0,0,0,679.18,145a81.87,81.87,0,0,0-16.1-25.73,73,73,0,0,0-24.36-17.34,79.85,79.85,0,0,0-61.65,0,73,73,0,0,0-24.36,17.34A81.87,81.87,0,0,0,536.61,145a84.51,84.51,0,0,0-5.78,31.38,85.5,85.5,0,0,0,5.78,31.51,81.56,81.56,0,0,0,16.1,25.88,72.83,72.83,0,0,0,24.36,17.33A75.51,75.51,0,0,0,607.9,257.3Zm55.32,46.51L593,197h30l70.19,106.79Z" transform="translate(-61.85 -70.69)"/></svg>