<svg id="Layer_1" data-name="Layer 1" xmlns="http://www.w3.org/2000/svg" viewBox="0 0 557 357"><defs><style>.cls-1{fill:#ed1c24;stroke:#ed1c24;stroke-miterlimit:10;}.cls-2{fill:#fff;}</style></defs><path d="M539.34,42.29S533.76,35,518.74,35h0A37.77,37.77,0,0,0,481,72.76v10.3a37.77,37.77,0,0,0,37.76,37.76h0a37.63,37.63,0,0,0,20.6-6.11v45.62a8.58,8.58,0,0,0,8.58,8.58h0a8.58,8.58,0,0,0,8.58-8.58V43.58A8.58,8.58,0,0,0,547.92,35h0C542.77,35,539.34,38.92,539.34,42.29Zm0,38.62a20.6,20.6,0,0,1-20.6,20.6h0a20.6,20.6,0,0,1-20.6-20.6v-6a20.6,20.6,0,0,1,20.6-20.6h0a20.6,20.6,0,0,1,20.6,20.6Z"/><path d="M448.8,34.21h0c-15.18,0-20.15,8.5-20.76,9.65a0,0,0,0,1-.09,0c-.25-1.22-2.36-9.85-13.27-9.85h0c-13.62,0-16.23,7.84-16.66,9.69,0,.05-.07,0-.07,0V42.47A8.47,8.47,0,0,0,389.48,34h0A8.47,8.47,0,0,0,381,42.48v69a8.37,8.37,0,0,0,8.37,8.37h.43a8.36,8.36,0,0,0,8.36-8.37V57a8.28,8.28,0,0,1,6.68-8.25,8.08,8.08,0,0,1,1.56-.13,8.74,8.74,0,0,1,8.5,8.82l-.19,54.23a8.37,8.37,0,0,0,8.37,8.39h.83a8.36,8.36,0,0,0,8.37-8.36V57.08a8.28,8.28,0,0,1,8-8.27h.54A8.18,8.18,0,0,1,449,57v54.7a8.36,8.36,0,0,0,8.37,8.36h0a8.36,8.36,0,0,0,8.37-8.36V48.8C465.75,40.25,456.6,34.21,448.8,34.21Z"/><rect class="cls-1" x="-0.18" y="0.05" width="357" height="357" rx="94.99"/><path class="cls-2" d="M99.63,268.22V73.57c0-9.56-8.59-17.3-19.19-17.3h0c-10.6,0-19.19,7.74-19.19,17.3v212c0,9.55,8.59,17.3,19.19,17.3H210c10.59,0,19.19-7.75,19.19-17.3h0c0-9.56-8.6-17.31-19.19-17.31Z"/><path class="cls-2" d="M275.2,302.83h0c10.59,0,19.18-7.91,19.18-17.65V144c0-9.74-8.59-17.65-19.18-17.65h0C264.6,126.3,256,134.21,256,144V285.18C256,294.92,264.6,302.83,275.2,302.83Z"/><rect class="cls-2" x="256.01" y="70.66" width="38.38" height="38.38" rx="19.19"/></svg>